HIERARCHY
ROOT mixamorig:Hips
{
	OFFSET -0.000008 104.274872 1.554316
	CHANNELS 6 Xposition Yposition Zposition Xrotation Yrotation Zrotation
	JOINT mixamorig:Spine
	{
		OFFSET -0.000005 10.181595 0.131519
		CHANNELS 6 Xposition Yposition Zposition Xrotation Yrotation Zrotation
		JOINT mixamorig:Spine1
		{
			OFFSET -0.000000 9.893959 -1.470707
			CHANNELS 6 Xposition Yposition Zposition Xrotation Yrotation Zrotation
			JOINT mixamorig:Spine2
			{
				OFFSET -0.000000 9.220757 -1.370641
				CHANNELS 6 Xposition Yposition Zposition Xrotation Yrotation Zrotation
				JOINT mixamorig:Neck
				{
					OFFSET 0.000001 16.740417 -2.049036
					CHANNELS 6 Xposition Yposition Zposition Xrotation Yrotation Zrotation
					JOINT mixamorig:Head
					{
						OFFSET 0.000000 9.617874 1.685006
						CHANNELS 6 Xposition Yposition Zposition Xrotation Yrotation Zrotation
						JOINT mixamorig:HeadTop_End
						{
							OFFSET 0.000002 22.037354 7.501101
							CHANNELS 6 Xposition Yposition Zposition Xrotation Yrotation Zrotation
							End Site
							{
								OFFSET 0.000168 2310.654297 -282.823242
							}
						}
					}
				}
				JOINT mixamorig:RightShoulder
				{
					OFFSET -4.569970 11.014908 -2.160885
					CHANNELS 6 Xposition Yposition Zposition Xrotation Yrotation Zrotation
					JOINT mixamorig:RightArm
					{
						OFFSET -10.592851 -0.524811 -2.232101
						CHANNELS 6 Xposition Yposition Zposition Xrotation Yrotation Zrotation
						JOINT mixamorig:RightForeArm
						{
							OFFSET -27.841511 0.000031 -0.000004
							CHANNELS 6 Xposition Yposition Zposition Xrotation Yrotation Zrotation
							JOINT mixamorig:RightHand
							{
								OFFSET -28.328831 -0.000015 0.000015
								CHANNELS 6 Xposition Yposition Zposition Xrotation Yrotation Zrotation
								JOINT mixamorig:RightHandThumb1
								{
									OFFSET -2.464806 -1.573990 2.681852
									CHANNELS 6 Xposition Yposition Zposition Xrotation Yrotation Zrotation
									JOINT mixamorig:RightHandThumb2
									{
										OFFSET -3.215179 -1.872803 1.924282
										CHANNELS 6 Xposition Yposition Zposition Xrotation Yrotation Zrotation
										JOINT mixamorig:RightHandThumb3
										{
											OFFSET -2.654831 -1.527969 1.512609
											CHANNELS 6 Xposition Yposition Zposition Xrotation Yrotation Zrotation
											JOINT mixamorig:RightHandThumb4
											{
												OFFSET -2.018814 -1.152008 1.108052
												CHANNELS 6 Xposition Yposition Zposition Xrotation Yrotation Zrotation
												End Site
												{
													OFFSET -188.809540 -114.533607 132.431396
												}
											}
										}
									}
								}
								JOINT mixamorig:RightHandIndex1
								{
									OFFSET -9.108284 -0.517868 2.259835
									CHANNELS 6 Xposition Yposition Zposition Xrotation Yrotation Zrotation
									JOINT mixamorig:RightHandIndex2
									{
										OFFSET -3.699989 0.000000 0.001215
										CHANNELS 6 Xposition Yposition Zposition Xrotation Yrotation Zrotation
										JOINT mixamorig:RightHandIndex3
										{
											OFFSET -2.850006 0.000031 -0.000522
											CHANNELS 6 Xposition Yposition Zposition Xrotation Yrotation Zrotation
											JOINT mixamorig:RightHandIndex4
											{
												OFFSET -2.772186 -0.000015 -0.000020
												CHANNELS 6 Xposition Yposition Zposition Xrotation Yrotation Zrotation
												End Site
												{
													OFFSET -277.218445 0.000000 -0.050231
												}
											}
										}
									}
								}
								JOINT mixamorig:RightHandMiddle1
								{
									OFFSET -9.532516 -0.000031 -0.000023
									CHANNELS 6 Xposition Yposition Zposition Xrotation Yrotation Zrotation
									JOINT mixamorig:RightHandMiddle2
									{
										OFFSET -3.700005 -0.000015 0.003713
										CHANNELS 6 Xposition Yposition Zposition Xrotation Yrotation Zrotation
										JOINT mixamorig:RightHandMiddle3
										{
											OFFSET -2.949974 0.000015 -0.002054
											CHANNELS 6 Xposition Yposition Zposition Xrotation Yrotation Zrotation
											JOINT mixamorig:RightHandMiddle4
											{
												OFFSET -2.946640 0.000000 -0.000156
												CHANNELS 6 Xposition Yposition Zposition Xrotation Yrotation Zrotation
												End Site
												{
													OFFSET -294.664337 0.000000 -0.113670
												}
											}
										}
									}
								}
								JOINT mixamorig:RightHandRing1
								{
									OFFSET -9.103600 -0.043076 -1.865134
									CHANNELS 6 Xposition Yposition Zposition Xrotation Yrotation Zrotation
									JOINT mixamorig:RightHandRing2
									{
										OFFSET -3.379288 0.000000 -0.001055
										CHANNELS 6 Xposition Yposition Zposition Xrotation Yrotation Zrotation
										JOINT mixamorig:RightHandRing3
										{
											OFFSET -2.889687 -0.000015 0.000379
											CHANNELS 6 Xposition Yposition Zposition Xrotation Yrotation Zrotation
											JOINT mixamorig:RightHandRing4
											{
												OFFSET -2.638809 -0.000015 0.000941
												CHANNELS 6 Xposition Yposition Zposition Xrotation Yrotation Zrotation
												End Site
												{
													OFFSET -263.880371 0.000000 0.516020
												}
											}
										}
									}
								}
								JOINT mixamorig:RightHandPinky1
								{
									OFFSET -8.076683 -0.486710 -3.806280
									CHANNELS 6 Xposition Yposition Zposition Xrotation Yrotation Zrotation
									JOINT mixamorig:RightHandPinky2
									{
										OFFSET -3.600014 -0.000015 -0.003747
										CHANNELS 6 Xposition Yposition Zposition Xrotation Yrotation Zrotation
										JOINT mixamorig:RightHandPinky3
										{
											OFFSET -2.099983 0.000000 -0.005739
											CHANNELS 6 Xposition Yposition Zposition Xrotation Yrotation Zrotation
											JOINT mixamorig:RightHandPinky4
											{
												OFFSET -2.115768 -0.000031 -0.003680
												CHANNELS 6 Xposition Yposition Zposition Xrotation Yrotation Zrotation
												End Site
												{
													OFFSET -211.577087 0.000000 -0.350686
												}
											}
										}
									}
								}
							}
						}
					}
				}
				JOINT mixamorig:LeftShoulder
				{
					OFFSET 4.570447 11.014725 -2.160855
					CHANNELS 6 Xposition Yposition Zposition Xrotation Yrotation Zrotation
					JOINT mixamorig:LeftArm
					{
						OFFSET 10.592371 -0.524597 -2.232119
						CHANNELS 6 Xposition Yposition Zposition Xrotation Yrotation Zrotation
						JOINT mixamorig:LeftForeArm
						{
							OFFSET 27.841532 -0.000031 0.000026
							CHANNELS 6 Xposition Yposition Zposition Xrotation Yrotation Zrotation
							JOINT mixamorig:LeftHand
							{
								OFFSET 28.328846 -0.000061 0.000022
								CHANNELS 6 Xposition Yposition Zposition Xrotation Yrotation Zrotation
								JOINT mixamorig:LeftHandThumb1
								{
									OFFSET 2.466141 -1.576172 2.681732
									CHANNELS 6 Xposition Yposition Zposition Xrotation Yrotation Zrotation
									JOINT mixamorig:LeftHandThumb2
									{
										OFFSET 3.217812 -1.872070 1.916482
										CHANNELS 6 Xposition Yposition Zposition Xrotation Yrotation Zrotation
										JOINT mixamorig:LeftHandThumb3
										{
											OFFSET 2.656029 -1.528778 1.514513
											CHANNELS 6 Xposition Yposition Zposition Xrotation Yrotation Zrotation
											JOINT mixamorig:LeftHandThumb4
											{
												OFFSET 2.020889 -1.154053 1.115139
												CHANNELS 6 Xposition Yposition Zposition Xrotation Yrotation Zrotation
												End Site
												{
													OFFSET 190.885437 -115.081749 130.048782
												}
											}
										}
									}
								}
								JOINT mixamorig:LeftHandIndex1
								{
									OFFSET 9.109314 -0.518021 2.259871
									CHANNELS 6 Xposition Yposition Zposition Xrotation Yrotation Zrotation
									JOINT mixamorig:LeftHandIndex2
									{
										OFFSET 3.699989 0.000000 -0.000322
										CHANNELS 6 Xposition Yposition Zposition Xrotation Yrotation Zrotation
										JOINT mixamorig:LeftHandIndex3
										{
											OFFSET 2.850006 0.000000 0.000352
											CHANNELS 6 Xposition Yposition Zposition Xrotation Yrotation Zrotation
											JOINT mixamorig:LeftHandIndex4
											{
												OFFSET 2.774864 -0.000031 -0.000027
												CHANNELS 6 Xposition Yposition Zposition Xrotation Yrotation Zrotation
												End Site
												{
													OFFSET 277.486267 0.000000 -0.009857
												}
											}
										}
									}
								}
								JOINT mixamorig:LeftHandMiddle1
								{
									OFFSET 9.533394 0.000061 0.000044
									CHANNELS 6 Xposition Yposition Zposition Xrotation Yrotation Zrotation
									JOINT mixamorig:LeftHandMiddle2
									{
										OFFSET 3.699989 -0.000015 -0.000231
										CHANNELS 6 Xposition Yposition Zposition Xrotation Yrotation Zrotation
										JOINT mixamorig:LeftHandMiddle3
										{
											OFFSET 2.949997 -0.000015 -0.000059
											CHANNELS 6 Xposition Yposition Zposition Xrotation Yrotation Zrotation
											JOINT mixamorig:LeftHandMiddle4
											{
												OFFSET 2.952896 0.000031 0.000063
												CHANNELS 6 Xposition Yposition Zposition Xrotation Yrotation Zrotation
												End Site
												{
													OFFSET 295.289337 0.000000 0.022810
												}
											}
										}
									}
								}
								JOINT mixamorig:LeftHandRing1
								{
									OFFSET 9.104523 -0.042999 -1.865074
									CHANNELS 6 Xposition Yposition Zposition Xrotation Yrotation Zrotation
									JOINT mixamorig:LeftHandRing2
									{
										OFFSET 3.150009 -0.000031 0.000043
										CHANNELS 6 Xposition Yposition Zposition Xrotation Yrotation Zrotation
										JOINT mixamorig:LeftHandRing3
										{
											OFFSET 2.949982 -0.000015 0.000040
											CHANNELS 6 Xposition Yposition Zposition Xrotation Yrotation Zrotation
											JOINT mixamorig:LeftHandRing4
											{
												OFFSET 2.644348 0.000000 0.000057
												CHANNELS 6 Xposition Yposition Zposition Xrotation Yrotation Zrotation
												End Site
												{
													OFFSET 264.434631 0.000000 0.012105
												}
											}
										}
									}
								}
								JOINT mixamorig:LeftHandPinky1
								{
									OFFSET 8.077789 -0.486847 -3.806259
									CHANNELS 6 Xposition Yposition Zposition Xrotation Yrotation Zrotation
									JOINT mixamorig:LeftHandPinky2
									{
										OFFSET 3.599953 0.000031 0.014727
										CHANNELS 6 Xposition Yposition Zposition Xrotation Yrotation Zrotation
										JOINT mixamorig:LeftHandPinky3
										{
											OFFSET 2.100021 0.000015 0.007705
											CHANNELS 6 Xposition Yposition Zposition Xrotation Yrotation Zrotation
											JOINT mixamorig:LeftHandPinky4
											{
												OFFSET 2.125504 0.000031 0.007517
												CHANNELS 6 Xposition Yposition Zposition Xrotation Yrotation Zrotation
												End Site
												{
													OFFSET 212.550781 0.000000 0.625752
												}
											}
										}
									}
								}
							}
						}
					}
				}
			}
		}
	}
	JOINT mixamorig:RightUpLeg
	{
		OFFSET -8.207787 -6.751648 -1.599560
		CHANNELS 6 Xposition Yposition Zposition Xrotation Yrotation Zrotation
		JOINT mixamorig:RightLeg
		{
			OFFSET -0.000002 -44.370117 0.345942
			CHANNELS 6 Xposition Yposition Zposition Xrotation Yrotation Zrotation
			JOINT mixamorig:RightFoot
			{
				OFFSET 0.000003 -44.423679 -3.043532
				CHANNELS 6 Xposition Yposition Zposition Xrotation Yrotation Zrotation
				JOINT mixamorig:RightToeBase
				{
					OFFSET -0.000002 -8.728671 10.710558
					CHANNELS 6 Xposition Yposition Zposition Xrotation Yrotation Zrotation
					JOINT mixamorig:RightToe_End
					{
						OFFSET -0.000001 -0.000679 9.278119
						CHANNELS 6 Xposition Yposition Zposition Xrotation Yrotation Zrotation
						End Site
						{
							OFFSET 0.000000 -0.067690 927.812134
						}
					}
				}
			}
		}
	}
	JOINT mixamorig:LeftUpLeg
	{
		OFFSET 8.207793 -6.751686 -1.599556
		CHANNELS 6 Xposition Yposition Zposition Xrotation Yrotation Zrotation
		JOINT mixamorig:LeftLeg
		{
			OFFSET -0.000004 -44.370014 0.346954
			CHANNELS 6 Xposition Yposition Zposition Xrotation Yrotation Zrotation
			JOINT mixamorig:LeftFoot
			{
				OFFSET -0.000001 -44.423672 -3.044401
				CHANNELS 6 Xposition Yposition Zposition Xrotation Yrotation Zrotation
				JOINT mixamorig:LeftToeBase
				{
					OFFSET -0.000002 -8.728669 10.710558
					CHANNELS 6 Xposition Yposition Zposition Xrotation Yrotation Zrotation
					JOINT mixamorig:LeftToe_End
					{
						OFFSET -0.000003 -0.000679 9.278133
						CHANNELS 6 Xposition Yposition Zposition Xrotation Yrotation Zrotation
						End Site
						{
							OFFSET 0.000000 -0.068021 927.813477
						}
					}
				}
			}
		}
	}
}
MOTION
Frames: 3
Frame Time: 0.033333
0.000006 104.270477 1.554256 0.000010 0.000003 -0.000113 -0.000005 10.181587 0.131522 0.000001 -0.000003 0.000084 -0.000000 9.893967 -1.470711 0.000001 0.000000 -0.000000 -0.000000 9.220802 -1.370642 0.000000 -0.000000 -0.000000 0.000001 16.740433 -2.049030 0.000000 -0.000000 -0.000000 0.000000 9.617859 1.685014 0.000000 0.000000 0.000000 0.000002 22.037384 7.501101 0.000000 -0.000000 0.000000 -4.569968 11.014880 -2.160881 0.000008 0.000001 -0.000038 -10.592865 -0.524670 -2.232029 72.235179 5.555481 -4.055237 -27.841551 0.000022 0.000549 -59.869005 118.243538 87.838336 -28.328821 0.000020 0.000024 -0.000322 -0.000044 0.000007 -2.464417 -1.573761 2.682340 -48.878999 -168.072719 -12.439456 -3.215266 -1.872565 1.924639 152.468209 32.307119 10.430711 -2.654964 -1.527890 1.513073 146.734334 27.196997 -34.754226 -2.018842 -1.152015 1.108055 -0.000005 -0.000003 0.000002 -9.108381 -0.517554 2.260120 99.357293 15.860478 -18.696494 -3.700077 0.000324 0.001523 98.437260 13.005262 -15.027372 -2.850082 0.000373 -0.000256 99.031425 9.876557 -11.558676 -2.772167 -0.000017 -0.000008 0.000000 0.000004 -0.000002 -9.532591 0.000271 0.000240 97.006786 14.776546 -16.836729 -3.700062 0.000341 0.003989 96.321131 11.250287 -12.450824 -2.950055 0.000340 -0.001794 98.020202 10.148246 -11.660487 -2.946616 -0.000003 -0.000163 -0.000006 0.000002 -0.000000 -9.103691 -0.042758 -1.864845 97.714879 17.001229 -19.364956 -3.379311 0.000315 -0.000797 96.165198 8.383016 -9.352324 -2.889740 0.000377 0.000661 99.773976 4.840799 -5.797071 -2.638793 -0.000001 0.000936 -0.000001 -0.000000 0.000003 -8.076747 -0.486386 -3.806004 91.817673 17.685639 -18.090338 -3.600034 0.000303 -0.003510 94.282777 6.237983 -6.350364 -2.100014 0.000330 -0.005485 94.876361 1.916237 -1.860942 -2.115771 -0.000071 -0.003678 -0.000004 -0.000004 -0.000002 4.570446 11.014691 -2.160851 -0.000018 0.000010 -0.000021 10.592371 -0.524501 -2.232331 74.271709 -0.336388 0.254826 27.841843 0.000123 -0.000187 107.098118 -61.129087 77.287040 28.328848 -0.000028 0.000016 0.000021 -0.000089 -0.000000 2.465894 -1.576113 2.681898 -49.971334 170.128264 16.378027 3.217815 -1.871758 1.916365 153.928777 -30.599521 1.992230 2.656098 -1.528646 1.514462 139.689881 -27.987491 43.734231 2.020891 -1.154053 1.115143 0.000001 0.000000 0.000003 9.109371 -0.517848 2.259738 85.996105 -14.734888 13.738017 3.700047 0.000154 -0.000472 83.814918 -16.893908 15.199203 2.850062 0.000174 0.000206 83.123860 -15.178098 13.473336 2.774891 -0.000026 -0.000028 0.000001 -0.000002 -0.000002 9.533458 0.000213 -0.000072 85.512773 -14.389894 13.306914 3.700059 0.000185 -0.000369 89.301527 -16.058972 15.864129 2.950075 0.000162 -0.000185 90.944782 -19.292998 19.610779 2.952880 -0.000030 0.000066 -0.000000 0.000001 0.000004 9.104585 -0.042835 -1.865226 86.322301 -14.391299 13.506314 3.150025 0.000203 -0.000104 91.896685 -13.511621 13.963961 2.950021 0.000173 -0.000067 94.823359 -15.296359 16.625415 2.644330 0.000014 0.000063 0.000003 0.000001 -0.000002 8.077827 -0.486732 -3.806404 75.609135 -17.482499 14.071138 3.600004 0.000174 0.014557 79.148649 -14.094730 12.095713 2.100055 0.000170 0.007552 83.973330 -12.913544 12.070695 2.125518 -0.000014 0.007511 0.000001 0.000002 -0.000003 -8.207786 -6.751667 -1.599560 -0.077001 -0.000003 0.000080 -0.000002 -44.370110 0.345938 0.153719 -0.000000 -0.000000 0.000000 -44.423679 -3.043532 -0.076700 0.000000 -0.000002 -0.000006 -8.728667 10.710559 -0.000009 -0.000000 -0.000000 -0.000001 -0.000679 9.278123 0.000000 -0.000000 -0.000000 8.207792 -6.751710 -1.599556 -0.074518 -0.000003 0.000081 -0.000002 -44.370014 0.346960 0.148822 0.000002 0.000000 -0.000001 -44.423664 -3.044403 -0.074314 0.000000 -0.000002 -0.000004 -8.728671 10.710558 0.000007 -0.000000 -0.000000 0.000000 -0.000680 9.278137 -0.000000 0.000000 -0.000001 
0.000006 104.270477 1.554256 0.000010 0.000003 -0.000113 -0.000005 10.181587 0.131522 0.000001 -0.000003 0.000084 -0.000000 9.893967 -1.470711 0.000001 0.000000 -0.000000 -0.000000 9.220802 -1.370642 0.000000 -0.000000 -0.000000 0.000001 16.740433 -2.049030 0.000000 -0.000000 -0.000000 0.000000 9.617859 1.685014 0.000000 0.000000 0.000000 0.000002 22.037384 7.501101 0.000000 -0.000000 0.000000 -4.569968 11.014880 -2.160881 0.000008 0.000001 -0.000038 -10.592878 -0.524699 -2.231997 72.163728 13.600026 -9.932573 -27.841524 0.000012 0.000520 -56.083148 113.124947 77.782133 -28.328842 0.000021 0.000032 -0.000321 -0.000044 0.000006 -2.464427 -1.573758 2.682335 -48.442717 -164.620372 -11.343322 -3.215269 -1.872581 1.924643 153.141010 32.469780 10.710908 -2.654974 -1.527873 1.513090 146.562554 27.009903 -37.137904 -2.018827 -1.152020 1.108069 0.000004 -0.000003 0.000002 -9.108384 -0.517557 2.260125 100.387825 16.557292 -19.864007 -3.700076 0.000308 0.001526 97.125037 14.190687 -16.024980 -2.850093 0.000364 -0.000256 96.056222 11.499740 -12.773243 -2.772161 -0.000003 -0.000022 -0.000001 0.000001 -0.000001 -9.532612 0.000268 0.000256 97.070375 17.918042 -20.394909 -3.700070 0.000325 0.003996 97.140822 13.350093 -14.999133 -2.950080 0.000326 -0.001769 100.332439 11.941139 -14.283947 -2.946621 -0.000001 -0.000156 -0.000002 -0.000000 0.000001 -9.103711 -0.042760 -1.864841 95.144788 18.785804 -20.467855 -3.379328 0.000306 -0.000789 95.791545 9.235507 -10.233749 -2.889754 0.000351 0.000677 103.517206 6.334793 -8.090503 -2.638811 -0.000009 0.000944 0.000002 -0.000001 0.000001 -8.076769 -0.486394 -3.806005 87.536934 20.365334 -19.376287 -3.600038 0.000296 -0.003498 91.469142 8.265138 -8.115823 -2.100016 0.000325 -0.005486 95.326560 3.748777 -3.880136 -2.115781 -0.000038 -0.003677 -0.000002 0.000002 -0.000004 4.570446 11.014691 -2.160851 -0.000018 0.000010 -0.000021 10.592361 -0.524527 -2.232268 73.096350 10.811512 -8.024825 27.841854 0.000113 -0.000229 109.836388 -63.804321 83.102761 28.328833 -0.000044 0.000016 0.000018 -0.000090 -0.000000 2.466034 -1.576156 2.681905 -34.373907 161.158723 -21.838230 3.217816 -1.871779 1.916369 160.854151 -29.208163 11.290271 2.656098 -1.528677 1.514485 138.352148 -28.013818 54.555149 2.020872 -1.154079 1.115143 -0.000002 0.000004 0.000001 9.109399 -0.517853 2.259721 86.780149 -18.089847 17.103881 3.700041 0.000148 -0.000462 85.236451 -13.420883 12.373330 2.850062 0.000193 0.000197 84.670461 -10.495346 9.565219 2.774869 -0.000017 -0.000026 0.000001 0.000001 -0.000002 9.533472 0.000215 -0.000087 86.388922 -16.801024 15.779106 3.700044 0.000181 -0.000386 88.543731 -11.419386 11.132011 2.950046 0.000190 -0.000204 89.361387 -11.148113 11.028166 2.952868 -0.000033 0.000071 0.000001 -0.000000 0.000002 9.104594 -0.042845 -1.865230 85.696457 -16.184254 15.027823 3.150054 0.000210 -0.000102 91.442170 -10.826426 11.102560 2.950022 0.000196 -0.000076 93.810203 -9.528705 10.182907 2.644331 0.000013 0.000060 0.000002 0.000001 0.000001 8.077867 -0.486721 -3.806392 80.119676 -18.394804 16.013256 3.599987 0.000176 0.014571 82.150647 -14.549587 13.149609 2.100036 0.000203 0.007536 85.290444 -9.941174 9.593111 2.125502 0.000015 0.007508 0.000002 0.000007 0.000000 -8.207786 -6.751667 -1.599560 -0.077001 -0.000003 0.000080 -0.000002 -44.370110 0.345938 0.153719 -0.000000 -0.000000 0.000000 -44.423679 -3.043532 -0.076700 0.000000 -0.000002 -0.000006 -8.728667 10.710559 -0.000009 -0.000000 -0.000000 -0.000001 -0.000679 9.278123 0.000000 -0.000000 -0.000000 8.207792 -6.751710 -1.599556 -0.074518 -0.000003 0.000081 -0.000002 -44.370014 0.346960 0.148822 0.000002 0.000000 -0.000001 -44.423664 -3.044403 -0.074314 0.000000 -0.000002 -0.000004 -8.728671 10.710558 0.000007 -0.000000 -0.000000 0.000000 -0.000680 9.278137 -0.000000 0.000000 -0.000001 
0.000006 104.270477 1.554256 0.000010 0.000003 -0.000113 -0.000005 10.181587 0.131522 0.000001 -0.000003 0.000084 -0.000000 9.893967 -1.470711 0.000001 0.000000 -0.000000 -0.000000 9.220802 -1.370642 0.000000 -0.000000 -0.000000 0.000001 16.740433 -2.049030 0.000000 -0.000000 -0.000000 0.000000 9.617859 1.685014 0.000000 0.000000 0.000000 0.000002 22.037384 7.501101 0.000000 -0.000000 0.000000 -4.569968 11.014880 -2.160881 0.000008 0.000001 -0.000038 -10.592877 -0.524731 -2.231957 72.134919 21.373858 -15.652505 -27.841518 0.000014 0.000544 -53.287708 107.975865 69.230934 -28.328808 0.000020 0.000035 -0.000319 -0.000042 0.000005 -2.464391 -1.573778 2.682334 -46.812710 -162.301209 -7.308223 -3.215283 -1.872561 1.924635 153.596925 32.552443 10.714304 -2.654941 -1.527898 1.513086 145.902662 26.997219 -38.796233 -2.018822 -1.152017 1.108074 0.000001 -0.000003 0.000000 -9.108384 -0.517565 2.260128 100.807356 16.951737 -20.481977 -3.700070 0.000320 0.001540 98.074932 14.636225 -16.802093 -2.850092 0.000358 -0.000259 96.558022 11.880856 -13.311630 -2.772170 -0.000000 -0.000023 -0.000001 -0.000000 -0.000000 -9.532593 0.000251 0.000261 97.518545 18.778512 -21.528172 -3.700069 0.000319 0.003995 97.215729 13.729913 -15.447477 -2.950055 0.000343 -0.001772 99.873355 12.285895 -14.577393 -2.946621 0.000004 -0.000156 0.000000 -0.000001 0.000002 -9.103690 -0.042761 -1.864846 95.785767 19.773051 -21.779327 -3.379318 0.000319 -0.000799 96.325721 9.778100 -10.934796 -2.889756 0.000356 0.000673 103.749105 6.756526 -8.660770 -2.638810 -0.000002 0.000944 -0.000004 0.000002 0.000000 -8.076769 -0.486398 -3.806005 87.546947 21.759024 -20.716906 -3.600041 0.000287 -0.003500 92.208551 9.235052 -9.223910 -2.100018 0.000305 -0.005477 96.265267 4.425321 -4.696720 -2.115759 -0.000047 -0.003684 0.000001 -0.000001 -0.000001 4.570446 11.014691 -2.160851 -0.000018 0.000010 -0.000021 10.592370 -0.524502 -2.232301 73.103515 0.331056 -0.245348 27.841839 0.000095 -0.000177 111.740611 -68.138794 89.870270 28.328846 -0.000029 0.000024 0.000020 -0.000089 0.000000 2.466219 -1.576081 2.681861 5.271924 161.557880 -90.614590 3.217855 -1.871787 1.916395 164.881504 -25.769143 25.160195 2.656103 -1.528616 1.514465 147.204961 -25.767389 46.833255 2.020906 -1.154070 1.115155 0.000003 0.000004 0.000002 9.109383 -0.517857 2.259757 94.405447 -20.999345 22.623683 3.700036 0.000170 -0.000457 91.405594 -13.674077 14.027821 2.850044 0.000203 0.000223 90.658214 -10.711419 10.833160 2.774876 -0.000032 -0.000024 0.000003 -0.000002 0.000001 9.533476 0.000229 -0.000071 92.347026 -18.929758 19.696848 3.700051 0.000223 -0.000392 94.990924 -11.301339 12.320811 2.950053 0.000211 -0.000209 96.113193 -10.593127 11.783459 2.952858 -0.000012 0.000072 0.000007 0.000000 0.000000 9.104599 -0.042819 -1.865203 93.612373 -18.489942 19.673340 3.150064 0.000199 -0.000105 95.807193 -12.973981 14.348675 2.950021 0.000201 -0.000083 96.144782 -10.490773 11.674951 2.644330 0.000031 0.000062 -0.000001 0.000001 0.000001 8.077848 -0.486693 -3.806401 87.080001 -20.553629 20.130463 3.600021 0.000188 0.014570 85.060990 -17.840954 16.876783 2.100060 0.000173 0.007547 85.481347 -12.911729 12.389669 2.125503 -0.000013 0.007511 0.000001 -0.000004 0.000000 -8.207786 -6.751667 -1.599560 -0.077001 -0.000003 0.000080 -0.000002 -44.370110 0.345938 0.153719 -0.000000 -0.000000 0.000000 -44.423679 -3.043532 -0.076700 0.000000 -0.000002 -0.000006 -8.728667 10.710559 -0.000009 -0.000000 -0.000000 -0.000001 -0.000679 9.278123 0.000000 -0.000000 -0.000000 8.207792 -6.751710 -1.599556 -0.074518 -0.000003 0.000081 -0.000002 -44.370014 0.346960 0.148822 0.000002 0.000000 -0.000001 -44.423664 -3.044403 -0.074314 0.000000 -0.000002 -0.000004 -8.728671 10.710558 0.000007 -0.000000 -0.000000 0.000000 -0.000680 9.278137 -0.000000 0.000000 -0.000001 
